<svg width="48" height="48" viewBox="0 0 48 48" fill="none" xmlns="http://www.w3.org/2000/svg">
<path d="M6.67564 34C10.1337 39.978 16.5972 44 24 44C26.8444 44 29.5502 43.4062 32 42.3358M6.67564 34C4.97394 31.0583 4 27.6429 4 24C4 12.9543 12.9543 4 24 4C35.0457 4 44 12.9543 44 24C44 27.6429 43.0261 31.0583 41.3244 34M6.67564 34L23.8383 13.196C23.9221 13.0944 24.0779 13.0944 24.1617 13.196M41.3244 34C39.195 37.6811 35.9261 40.6205 32 42.3358M41.3244 34L24.1617 13.196M32 42.3358L24.1617 13.196" stroke="white" stroke-width="4"/>
</svg>
