<svg width="48" height="48" viewBox="0 0 48 48" fill="none" xmlns="http://www.w3.org/2000/svg">
<path d="M18.1362 33.7917L15.3287 38.8119C14.4864 38.8119 10.8367 36.25 7.18691 33.3333C6.06391 23.5333 10.2752 15.25 12.5212 12.3333C13.8313 11.6528 16.1255 10.2333 18.8207 10C19.2699 10.7 19.5694 11.4583 19.6629 11.75C19.9437 11.75 22.3475 11.4583 24.5935 11.4583C26.8395 11.4583 29.0563 11.75 29.3371 11.75C29.4306 11.4583 29.7301 10.7 30.1793 10C32.8745 10.2333 35.1687 11.6528 36.4788 12.3333C38.7248 15.25 42.9361 23.5333 41.8131 33.3333C38.1633 36.25 34.5136 38.8119 33.6713 38.8119L30.8638 33.7917M18.1362 33.7917C17.4811 33.5972 16.0025 33.0333 15.3287 32.3333M18.1362 33.7917C22 35 27 35 30.8638 33.7917M30.8638 33.7917C31.5189 33.5972 32.9975 33.0333 33.6713 32.3333" stroke="white" stroke-width="4" stroke-linecap="round" stroke-linejoin="round"/>
</svg>
