<svg width="48" height="48" viewBox="0 0 48 48" fill="none" xmlns="http://www.w3.org/2000/svg">
<path d="M7.5 21V40.5C7.5 42.1569 8.84315 43.5 10.5 43.5H37.5C39.1569 43.5 40.5 42.1569 40.5 40.5V21M4 14C5.17 15.5092 8.368 17.6222 11.8 14C12.97 15.5092 16.168 17.6222 19.6 14C20.77 15.5092 24.968 17.6222 28.4 14C29.57 15.5092 32.768 17.6222 36.2 14C37.37 15.5092 40.568 17.6222 44 14L42 6H6L4 14Z" stroke="white" stroke-width="4" stroke-linecap="round" stroke-linejoin="round"/>
<path d="M24 33.5V26M24 26L20 30M24 26L28 30" stroke="white" stroke-width="4" stroke-linecap="round" stroke-linejoin="round"/>
</svg>
