<svg width="499" height="525" viewBox="0 0 499 525" fill="none" xmlns="http://www.w3.org/2000/svg">
<g clip-path="url(#clip0_408_288)">
<path fill-rule="evenodd" clip-rule="evenodd" d="M277.194 66.3571C276.888 70.1438 275.808 73.7118 274.112 76.9024C317.166 83.5191 354.588 107.223 379.235 140.872L391.983 140.068C366.063 101.542 324.931 74.1026 277.194 66.3571ZM225.898 76.7505C224.222 73.5505 223.164 69.9763 222.882 66.186C174.606 73.7039 132.991 101.346 106.885 140.265L119.636 141.048C144.474 107.043 182.344 83.1607 225.898 76.7505ZM128.218 341.184C126.258 344.304 123.684 346.998 120.664 349.097C152.111 384.81 198.174 407.343 249.5 407.343C300.826 407.343 346.888 384.81 378.336 349.097C375.316 346.998 372.742 344.304 370.782 341.184C341.319 375.044 297.909 396.448 249.5 396.448C201.091 396.448 157.681 375.044 128.218 341.184ZM396.996 299.655C400.746 300.084 404.264 301.275 407.392 303.068C416.219 282.395 421.104 259.638 421.104 235.739C421.104 234.372 421.089 233.009 421.057 231.65L410.059 242.747C409.194 262.9 404.618 282.092 396.996 299.655ZM102.004 299.655C94.3051 281.914 89.7137 262.512 88.916 242.136L77.955 231.175C77.9154 232.691 77.8955 234.213 77.8955 235.739C77.8955 259.638 82.781 282.395 91.6077 303.068C94.736 301.275 98.2542 300.084 102.004 299.655Z" fill="white"/>
<path fill-rule="evenodd" clip-rule="evenodd" d="M288.179 64.1343C288.179 85.1953 271.106 102.269 250.045 102.269C228.984 102.269 211.91 85.1953 211.91 64.1343C211.91 43.0733 228.984 26 250.045 26C271.106 26 288.179 43.0733 288.179 64.1343ZM250.045 91.3731C265.088 91.3731 277.284 79.1779 277.284 64.1343C277.284 49.0908 265.088 36.8955 250.045 36.8955C235.001 36.8955 222.806 49.0908 222.806 64.1343C222.806 79.1779 235.001 91.3731 250.045 91.3731ZM143.269 326.716C143.269 347.777 126.195 364.851 105.134 364.851C84.0733 364.851 67 347.777 67 326.716C67 305.655 84.0733 288.582 105.134 288.582C126.195 288.582 143.269 305.655 143.269 326.716ZM105.134 353.955C120.178 353.955 132.373 341.76 132.373 326.716C132.373 311.673 120.178 299.478 105.134 299.478C90.0908 299.478 77.8955 311.673 77.8955 326.716C77.8955 341.76 90.0908 353.955 105.134 353.955ZM393.866 364.851C414.927 364.851 432 347.777 432 326.716C432 305.655 414.927 288.582 393.866 288.582C372.805 288.582 355.731 305.655 355.731 326.716C355.731 347.777 372.805 364.851 393.866 364.851ZM421.104 326.716C421.104 341.76 408.909 353.955 393.866 353.955C378.822 353.955 366.627 341.76 366.627 326.716C366.627 311.673 378.822 299.478 393.866 299.478C408.909 299.478 421.104 311.673 421.104 326.716Z" fill="white"/>
<path d="M410.209 235.739C410.209 324.496 338.257 396.448 249.5 396.448C160.743 396.448 88.791 324.496 88.791 235.739C88.791 232.889 88.8652 230.056 89.0117 227.243L78.8934 217.125C78.2339 223.239 77.8955 229.449 77.8955 235.739C77.8955 330.513 154.725 407.343 249.5 407.343C344.275 407.343 421.104 330.513 421.104 235.739C421.104 229.692 420.792 223.719 420.182 217.833L410.03 228.077C410.149 230.616 410.209 233.17 410.209 235.739Z" fill="white" fill-opacity="0.5"/>
<path d="M111.678 153.034C139.784 106.297 190.991 75.0298 249.5 75.0298C307.941 75.0298 359.097 106.224 387.224 152.871L399.38 152.104C370.029 99.6184 313.909 64.1343 249.5 64.1343C185.017 64.1343 128.84 99.7008 99.5182 152.287L111.678 153.034Z" fill="white" fill-opacity="0.5"/>
<path d="M131.373 432.152L135.117 467H122.685L121.917 442.136L117.117 467H104.541L99.6454 442.328L98.9254 467H86.4934L90.2374 432.152H106.557L110.733 454.856L114.381 432.152H131.373ZM171.635 467C171.027 465.176 170.211 462.888 169.187 460.136H153.875L151.475 467H139.427L152.867 432.152H170.531L184.067 467H171.635ZM166.451 452.648C165.235 449.288 163.987 445.928 162.707 442.568L161.555 439.448C160.435 442.36 158.787 446.76 156.611 452.648H166.451ZM206.413 447.128H226.909V467H218.461L217.453 458.504C216.493 461.544 214.781 463.8 212.317 465.272C209.853 466.744 206.845 467.48 203.293 467.48C200.061 467.48 197.181 466.76 194.653 465.32C192.157 463.88 190.189 461.816 188.749 459.128C187.341 456.44 186.637 453.304 186.637 449.72C186.637 443.992 188.349 439.464 191.773 436.136C195.197 432.808 200.525 431.144 207.757 431.144C211.885 431.144 215.517 431.816 218.653 433.16C221.821 434.504 224.509 436.584 226.717 439.4C225.277 440.136 222.461 441.608 218.269 443.816L217.069 444.488C215.821 443.24 214.365 442.312 212.701 441.704C211.037 441.064 209.277 440.744 207.421 440.744C204.349 440.744 202.061 441.56 200.557 443.192C199.053 444.792 198.301 446.776 198.301 449.144C198.301 451.704 199.101 453.768 200.701 455.336C202.333 456.904 204.813 457.688 208.141 457.688C209.581 457.688 210.973 457.48 212.317 457.064C213.693 456.648 214.845 455.928 215.773 454.904H206.413V447.128ZM244.475 458.216C256.635 458.152 265.451 457.976 270.923 457.688C270.699 459 270.555 460.36 270.491 461.768C270.459 463.144 270.443 464.888 270.443 467H233.147C233.403 460.792 233.531 454.984 233.531 449.576C233.531 444.168 233.403 438.36 233.147 432.152H270.443V440.84H244.475V445.448C246.011 445.48 248.283 445.496 251.291 445.496C256.379 445.496 261.643 445.4 267.083 445.208V453.464C261.643 453.272 256.379 453.176 251.291 453.176C248.283 453.176 246.011 453.192 244.475 453.224V458.216ZM298.532 467.48C291.204 467.48 285.812 465.896 282.356 462.728C278.9 459.528 277.172 455.048 277.172 449.288C277.172 443.592 278.884 439.144 282.308 435.944C285.764 432.744 291.172 431.144 298.532 431.144C305.924 431.144 311.332 432.744 314.756 435.944C318.212 439.144 319.94 443.592 319.94 449.288C319.94 455.08 318.228 459.56 314.804 462.728C311.38 465.896 305.956 467.48 298.532 467.48ZM298.532 457.688C302.084 457.688 304.644 457.016 306.212 455.672C307.78 454.296 308.564 452.168 308.564 449.288C308.564 446.472 307.78 444.376 306.212 443C304.644 441.624 302.084 440.936 298.532 440.936C295.012 440.936 292.468 441.624 290.9 443C289.332 444.376 288.548 446.472 288.548 449.288C288.548 452.136 289.332 454.248 290.9 455.624C292.468 457 295.012 457.688 298.532 457.688ZM358.335 453.896L360.831 432.152H372.543L366.111 467H351.375L348.111 447.56L344.319 467H330.207L323.775 432.152H335.487L337.935 453.608L341.775 432.152H354.591L358.335 453.896ZM390.48 457.304C399.76 457.24 407.44 457.08 413.52 456.824C413.104 458.456 412.848 460.024 412.752 461.528C412.656 463.032 412.608 464.856 412.608 467H378.768C379.024 460.792 379.152 454.984 379.152 449.576C379.152 444.168 379.024 438.36 378.768 432.152H390.48V457.304ZM147.417 510.248C148.143 509.16 148.74 508.147 149.209 507.208C149.7 506.269 150.169 505.181 150.617 503.944C152.132 504.819 153.892 505.501 155.897 505.992C157.903 506.483 159.769 506.728 161.497 506.728C163.268 506.728 164.516 506.579 165.241 506.28C165.967 505.96 166.329 505.619 166.329 505.256C166.329 503.955 164.345 503.304 160.377 503.304C156.025 503.304 152.868 502.856 150.905 501.96C148.943 501.043 147.961 499.571 147.961 497.544C147.961 494.664 149.156 492.541 151.545 491.176C153.935 489.811 157.039 489.128 160.857 489.128C163.076 489.128 165.348 489.416 167.673 489.992C170.02 490.547 172.132 491.315 174.009 492.296C173.391 493.704 172.74 495.421 172.057 497.448C171.929 497.875 171.823 498.195 171.737 498.408C170.649 497.533 169.007 496.808 166.809 496.232C164.612 495.635 162.671 495.336 160.985 495.336C158.959 495.336 157.593 495.475 156.889 495.752C156.185 496.008 155.833 496.392 155.833 496.904C155.833 497.416 156.313 497.832 157.273 498.152C158.255 498.451 159.663 498.6 161.497 498.6C166.02 498.6 169.305 499.123 171.353 500.168C173.401 501.192 174.425 502.771 174.425 504.904C174.425 507.891 173.337 510.045 171.161 511.368C168.985 512.669 165.689 513.32 161.273 513.32C158.905 513.32 156.495 513.064 154.041 512.552C151.588 512.019 149.38 511.251 147.417 510.248ZM204.787 496.488C201.437 496.381 198.184 496.317 195.027 496.296V513H187.027V496.296C183.848 496.317 180.605 496.381 177.299 496.488V489.768H204.787V496.488ZM227.905 489.736H235.841V502.472C235.799 505.608 234.721 508.2 232.609 510.248C230.519 512.296 226.988 513.32 222.017 513.32C216.983 513.32 213.537 512.349 211.681 510.408C209.825 508.445 208.919 505.875 208.961 502.696V489.736H216.897V502.184C216.897 503.123 216.961 503.891 217.089 504.488C217.239 505.064 217.687 505.608 218.433 506.12C219.201 506.632 220.428 506.888 222.113 506.888C223.948 506.888 225.292 506.632 226.145 506.12C226.999 505.587 227.5 505 227.649 504.36C227.82 503.72 227.905 502.899 227.905 501.896V489.736ZM250.239 489.416C254.249 489.416 257.417 489.907 259.743 490.888C262.068 491.848 263.689 493.192 264.607 494.92C265.545 496.627 266.015 498.728 266.015 501.224C266.015 503.592 265.481 505.661 264.415 507.432C263.348 509.203 261.748 510.579 259.615 511.56C257.481 512.52 254.857 513 251.743 513C249.844 513 247.913 513 245.951 513C243.988 513 242.004 512.989 239.999 512.968C240.169 508.765 240.255 504.851 240.255 501.224C240.255 497.555 240.169 493.725 239.999 489.736C242.537 489.523 245.951 489.416 250.239 489.416ZM252.639 506.632C254.623 506.632 255.945 506.152 256.607 505.192C257.268 504.232 257.599 502.909 257.599 501.224C257.599 499.603 257.247 498.291 256.543 497.288C255.86 496.285 254.559 495.784 252.639 495.784C250.569 495.784 249.023 495.848 247.999 495.976V506.632H252.639ZM288.753 496.136C286.215 496.008 284.337 495.933 283.121 495.912V506.856C284.359 506.835 286.236 506.76 288.753 506.632V513H270.161V506.632C272.615 506.76 274.481 506.835 275.761 506.856V495.912C274.481 495.933 272.615 496.008 270.161 496.136V489.768H288.753V496.136ZM307.158 513.32C302.272 513.32 298.678 512.264 296.374 510.152C294.07 508.019 292.918 505.032 292.918 501.192C292.918 497.395 294.059 494.429 296.342 492.296C298.646 490.163 302.251 489.096 307.158 489.096C312.086 489.096 315.691 490.163 317.974 492.296C320.278 494.429 321.43 497.395 321.43 501.192C321.43 505.053 320.288 508.04 318.006 510.152C315.723 512.264 312.107 513.32 307.158 513.32ZM307.158 506.792C309.526 506.792 311.232 506.344 312.278 505.448C313.323 504.531 313.846 503.112 313.846 501.192C313.846 499.315 313.323 497.917 312.278 497C311.232 496.083 309.526 495.624 307.158 495.624C304.811 495.624 303.115 496.083 302.07 497C301.024 497.917 300.502 499.315 300.502 501.192C300.502 503.091 301.024 504.499 302.07 505.416C303.115 506.333 304.811 506.792 307.158 506.792ZM325.58 510.248C326.305 509.16 326.903 508.147 327.372 507.208C327.863 506.269 328.332 505.181 328.78 503.944C330.295 504.819 332.055 505.501 334.06 505.992C336.065 506.483 337.932 506.728 339.66 506.728C341.431 506.728 342.679 506.579 343.404 506.28C344.129 505.96 344.492 505.619 344.492 505.256C344.492 503.955 342.508 503.304 338.54 503.304C334.188 503.304 331.031 502.856 329.068 501.96C327.105 501.043 326.124 499.571 326.124 497.544C326.124 494.664 327.319 492.541 329.708 491.176C332.097 489.811 335.201 489.128 339.02 489.128C341.239 489.128 343.511 489.416 345.836 489.992C348.183 490.547 350.295 491.315 352.172 492.296C351.553 493.704 350.903 495.421 350.22 497.448C350.092 497.875 349.985 498.195 349.9 498.408C348.812 497.533 347.169 496.808 344.972 496.232C342.775 495.635 340.833 495.336 339.148 495.336C337.121 495.336 335.756 495.475 335.052 495.752C334.348 496.008 333.996 496.392 333.996 496.904C333.996 497.416 334.476 497.832 335.436 498.152C336.417 498.451 337.825 498.6 339.66 498.6C344.183 498.6 347.468 499.123 349.516 500.168C351.564 501.192 352.588 502.771 352.588 504.904C352.588 507.891 351.5 510.045 349.324 511.368C347.148 512.669 343.852 513.32 339.436 513.32C337.068 513.32 334.657 513.064 332.204 512.552C329.751 512.019 327.543 511.251 325.58 510.248Z" fill="white"/>
</g>
<defs>
<clipPath id="clip0_408_288">
<rect width="499" height="525" fill="white"/>
</clipPath>
</defs>
</svg>
