<svg width="300" height="300" viewBox="0 0 300 300" fill="none" xmlns="http://www.w3.org/2000/svg">
<path fill-rule="evenodd" clip-rule="evenodd" d="M168.662 27.0926C168.457 29.6346 167.736 32.0298 166.603 34.1717C195.36 38.6139 220.354 54.5264 236.816 77.115L245.331 76.5753C228.019 50.7128 200.546 32.2925 168.662 27.0926ZM134.399 34.0693C133.28 31.9211 132.574 29.5217 132.385 26.9772C100.139 32.0237 72.3428 50.5803 54.9056 76.7073L63.4224 77.2329C80.0124 54.4046 105.307 38.3722 134.399 34.0693ZM69.1549 211.588C67.846 213.682 66.1264 215.491 64.1095 216.9C85.1141 240.874 115.881 256 150.162 256C184.445 256 215.212 240.873 236.216 216.898C234.2 215.489 232.48 213.68 231.171 211.586C211.492 234.317 182.497 248.686 150.162 248.686C117.829 248.686 88.8346 234.318 69.1549 211.588ZM248.68 183.708C251.184 183.996 253.534 184.795 255.624 185.998C261.519 172.121 264.782 156.843 264.782 140.8C264.782 139.883 264.772 138.968 264.75 138.055L257.405 145.505C256.827 159.034 253.77 171.917 248.68 183.708ZM51.6451 183.708C46.503 171.798 43.4362 158.774 42.9034 145.095L35.5822 137.736C35.5558 138.754 35.5425 139.776 35.5425 140.8C35.5425 156.844 38.8057 172.122 44.7015 186C46.791 184.796 49.1408 183.996 51.6451 183.708Z" fill="white"/>
<path fill-rule="evenodd" clip-rule="evenodd" d="M176.024 25.6C176.024 39.6968 164.644 51.1874 150.528 51.1874C136.413 51.1874 125.033 39.6968 125.033 25.6C125.033 11.5033 136.413 0.0125732 150.528 0.0125732C164.644 0.0125732 176.024 11.5033 176.024 25.6ZM150.528 43.8857C160.576 43.8857 168.722 35.6989 168.722 25.6C168.722 15.5011 160.576 7.31429 150.528 7.31429C140.48 7.31429 132.335 15.5011 132.335 25.6C132.335 35.6989 140.48 43.8857 150.528 43.8857ZM79.2334 201.874C79.2334 215.971 67.8534 227.462 53.738 227.462C39.6226 227.462 28.2427 215.971 28.2427 201.874C28.2427 187.778 39.6226 176.287 53.738 176.287C67.8534 176.287 79.2334 187.778 79.2334 201.874ZM53.738 220.16C63.7861 220.16 71.9316 211.973 71.9316 201.874C71.9316 191.775 63.7861 183.589 53.738 183.589C43.69 183.589 35.5444 191.775 35.5444 201.874C35.5444 211.973 43.69 220.16 53.738 220.16ZM246.591 227.462C260.706 227.462 272.086 215.971 272.086 201.874C272.086 187.778 260.706 176.287 246.591 176.287C232.475 176.287 221.095 187.778 221.095 201.874C221.095 215.971 232.475 227.462 246.591 227.462ZM264.784 201.874C264.784 211.973 256.639 220.16 246.591 220.16C236.543 220.16 228.397 211.973 228.397 201.874C228.397 191.775 236.543 183.589 246.591 183.589C256.639 183.589 264.784 191.775 264.784 201.874Z" fill="white"/>
<path d="M257.507 140.8C257.507 200.384 209.448 248.686 150.164 248.686C90.8807 248.686 42.8219 200.384 42.8219 140.8C42.8219 138.887 42.8714 136.985 42.9693 135.097L36.2109 128.304C35.7704 132.409 35.5444 136.578 35.5444 140.8C35.5444 204.423 86.8615 256 150.164 256C213.467 256 264.784 204.423 264.784 140.8C264.784 136.741 264.575 132.731 264.168 128.78L257.387 135.657C257.467 137.361 257.507 139.076 257.507 140.8Z" fill="white" fill-opacity="0.5"/>
<path d="M58.1086 85.279C76.8817 53.9042 111.084 32.9143 150.164 32.9143C189.199 32.9143 223.367 53.8554 242.155 85.1697L250.274 84.6551C230.67 49.4209 193.185 25.6 150.164 25.6C107.094 25.6 69.5721 49.4762 49.9869 84.7778L58.1086 85.279Z" fill="white" fill-opacity="0.5"/>
</svg>
