<svg width="48" height="48" viewBox="0 0 48 48" fill="none" xmlns="http://www.w3.org/2000/svg">
<path fill-rule="evenodd" clip-rule="evenodd" d="M41.4927 28.4917C42.4706 28.8465 43.5504 28.2897 43.7238 27.2639C44.1861 24.5279 44.0806 21.6515 43.3126 18.7962C40.4509 8.15064 29.4719 1.83256 18.7914 4.68478C11.1951 6.71377 5.79454 12.8349 4.33902 20.0309C4.13939 21.0179 4.93059 21.8925 5.93758 21.8925V21.8925C6.79384 21.8925 7.50657 21.2515 7.68923 20.415C8.96696 14.5633 13.4019 9.61124 19.6055 7.95415C27.2766 5.90508 35.1331 9.56816 38.6294 16.328C39.0971 17.2321 38.5498 18.2928 37.5663 18.5553V18.5553C36.7337 18.7775 35.8759 18.3418 35.4561 17.5891C34.14 15.2289 32.1407 13.3748 29.7862 12.2163C28.8343 11.7479 27.7658 12.3984 27.581 13.443V13.443C27.4329 14.2803 27.9156 15.0889 28.6606 15.4989C30.8878 16.7247 32.6305 18.8165 33.3407 21.4589C34.4419 25.5555 32.7313 29.7421 29.3882 31.9833C28.6803 32.4578 28.2675 33.307 28.4886 34.1299V34.1299C28.7636 35.153 29.8829 35.7084 30.7897 35.1607C34.7614 32.7621 37.192 28.4022 37.114 23.7516C37.0997 22.8941 37.6226 22.091 38.4513 21.8698V21.8698C39.4299 21.6085 40.4271 22.2536 40.468 23.2657C40.5099 24.3022 40.4531 25.3406 40.2983 26.3668C40.162 27.2699 40.6342 28.1803 41.4927 28.4917V28.4917Z" fill="white"/>
<path d="M29.1555 43.2374C18.4742 46.0896 7.4961 39.7715 4.63359 29.126C4.46418 28.4963 4.32567 27.8591 4.21847 27.2167C4.05585 26.2422 4.84198 25.4004 5.82996 25.4004V25.4004C6.70828 25.4004 7.43244 26.0723 7.59421 26.9356C7.67285 27.3552 7.76835 27.775 7.88126 28.1942C7.97014 28.5245 8.06842 28.8497 8.17574 29.1698C8.50901 30.1636 9.6849 30.5174 10.5842 29.9789V29.9789C11.3486 29.5213 11.642 28.5705 11.3862 27.7172C11.3499 27.5959 11.3151 27.4737 11.282 27.3505C9.40392 20.3642 13.5633 13.183 20.5727 11.3109C21.2275 11.1359 21.8843 11.0137 22.5383 10.9414C23.5941 10.8246 24.377 11.803 24.192 12.8491V12.8491C24.0442 13.6849 23.3156 14.2784 22.477 14.4097C22.1393 14.4626 21.801 14.5338 21.4633 14.6239C16.2899 16.0064 13.2195 21.3061 14.6055 26.4632V26.4632C14.7384 26.954 15.3062 27.1511 15.7424 26.8899L17.3266 25.9412C18.1569 25.444 18.5121 24.4237 18.17 23.5184L18.0495 23.1994C17.7748 22.4725 17.9461 21.6523 18.4887 21.096L20.8185 18.7073C21.0933 18.4256 21.4451 18.2312 21.8298 18.1485L25.0046 17.4658C25.5181 17.3554 26.0502 17.5424 26.3818 17.9498V17.9498C26.8322 18.5031 26.7932 19.3069 26.2915 19.8142L25.4015 20.7138C25.1722 20.9456 24.8898 21.1178 24.5788 21.2155L23.6834 21.4966C23.3677 21.5957 23.0815 21.7717 22.8504 22.0086L22.7541 22.1075C22.2197 22.6556 22.0451 23.4608 22.3045 24.1811L22.3871 24.4107C22.4802 24.6691 22.625 24.9051 22.8135 25.1049C22.9942 25.2965 23.2309 25.5475 23.4317 25.7602C23.6993 26.0437 24.043 26.1409 24.4198 26.0409L25.1272 25.853C25.4981 25.7546 25.8329 25.5514 26.0915 25.2679L26.6518 24.6538C26.8891 24.3936 27.1909 24.2007 27.5267 24.0946L28.7041 23.7226C29.3818 23.5084 30.1123 23.8372 30.4014 24.4864V24.4864C30.6162 24.9685 30.541 25.5304 30.207 25.939L28.1579 28.4466C27.9117 28.7479 27.5829 28.9709 27.2119 29.0881L24.0295 30.0938C23.2817 30.3302 22.4648 30.1076 21.9402 29.5247L21.6702 29.2247C21.0304 28.5138 19.9767 28.3553 19.1561 28.8467L18.7374 29.0974C17.6652 29.7394 17.4395 31.2132 18.4699 31.9203C19.8885 32.8938 21.5604 33.4888 23.3155 33.6076C24.1633 33.665 24.9425 34.1923 25.163 35.0129V35.0129C25.4384 36.0377 24.7454 37.0801 23.6845 37.0574C20.2891 36.9844 17.0809 35.5923 14.717 33.2588C14.092 32.6418 13.1295 32.4565 12.3759 32.9076V32.9076C11.4773 33.4456 11.2425 34.6526 11.9723 35.4038C16.0237 39.5748 22.1635 41.4888 28.1883 39.8799C32.4553 38.7404 35.8853 36.0412 38.0272 32.563C38.5039 31.7889 39.4461 31.3991 40.3006 31.7091V31.7091C41.2835 32.0657 41.7543 33.1931 41.2223 34.0931C38.6511 38.4424 34.4335 41.8277 29.1555 43.2374Z" fill="white"/>
</svg>
